<svg data-logo="logo" xmlns="http://www.w3.org/2000/svg" viewBox="0 0 204 40">
                <g style="opacity: 1;" id="logogram" transform="translate(0, 0)"><path d="M20.0642 28C15.6459 28 12.0642 24.4183 12.0642 20C12.0642 15.5817 15.6459 12 20.0642 12C24.4825 12 28.0642 15.5817 28.0642 20C28.0642 24.4183 24.4825 28 20.0642 28Z" fill="#51A3EE"></path><path d="M4.56593 22.7328C2.2476 23.1416 0.658502 25.3811 1.54844 27.5606C2.79089 30.6032 4.77306 33.3142 7.34281 35.4326C11.0174 38.4615 15.652 40.08 20.4134 39.997C25.1747 39.9139 29.7502 38.1346 33.3168 34.9791C35.811 32.7724 37.6974 29.9939 38.833 26.9098C39.6463 24.7005 37.9799 22.5179 35.6487 22.1903C33.3176 21.8627 31.2246 23.5595 30.0731 25.6128C29.449 26.7258 28.6387 27.7355 27.668 28.5943C25.6216 30.4048 22.9964 31.4256 20.2647 31.4734C17.5328 31.521 14.8736 30.5924 12.7654 28.8544C11.7652 28.03 10.9203 27.0492 10.2577 25.9587C9.03527 23.9468 6.88426 22.324 4.56593 22.7328Z" fill="#51A3EE"></path><path d="M39.9096 22.4993C40.0117 21.6805 40.0642 20.8464 40.0642 20C40.0642 8.95431 31.11 0 20.0642 0C9.01852 0 0.064209 8.95431 0.064209 20C0.064209 21.0863 0.150809 22.1523 0.317489 23.1916C1.23613 21.934 2.66989 21.0363 4.21856 20.7632C5.89414 20.4677 7.41699 20.8741 8.70457 21.6337C8.62851 21.1001 8.58915 20.5547 8.58915 20C8.58915 13.6625 13.7267 8.52494 20.0642 8.52494C26.4017 8.52494 31.5393 13.6625 31.5393 20C31.5393 20.4179 31.5169 20.8305 31.4734 21.2368C32.7338 20.4324 34.2418 19.9728 35.927 20.2097C37.4838 20.4285 38.9476 21.2752 39.9096 22.4993Z" fill="#0E4F8B"></path></g>
                <g style="opacity: 1;" id="logotype" transform="translate(47, 1.5)"><path fill="#81a6fe" d="M6.59 36.72L6.59 36.72L6.59 32.66Q7.50 32.66 8.10 32.52Q8.70 32.38 9.03 31.94Q9.36 31.50 9.48 30.64Q9.61 29.79 9.61 28.38L9.61 28.38L9.61 11.09L14.44 11.09L14.44 30.55Q14.44 32.66 13.95 33.90Q13.46 35.14 12.46 35.75Q11.46 36.37 10.01 36.54Q8.55 36.72 6.59 36.72ZM26.02 35.38L26.02 35.38Q23.05 35.38 21.24 34.41Q19.44 33.42 18.64 31.38Q17.83 29.33 17.83 26.07L17.83 26.07Q17.83 22.92 18.67 20.95Q19.51 18.97 21.33 18.01Q23.15 17.04 26.02 17.04L26.02 17.04Q28.93 17.04 30.73 18.01Q32.53 18.97 33.39 20.95Q34.25 22.92 34.25 26.07L34.25 26.07Q34.25 29.33 33.44 31.38Q32.64 33.42 30.83 34.41Q29.03 35.38 26.02 35.38ZM26.02 31.54L26.02 31.54Q27.49 31.54 28.23 30.99Q28.96 30.45 29.22 29.24Q29.48 28.04 29.48 26.07L29.48 26.07Q29.48 24.15 29.17 23.01Q28.86 21.88 28.12 21.38Q27.39 20.89 26.02 20.89L26.02 20.89Q24.69 20.89 23.94 21.38Q23.19 21.88 22.87 23.01Q22.55 24.15 22.55 26.07L22.55 26.07Q22.55 28.04 22.82 29.24Q23.08 30.45 23.82 30.99Q24.55 31.54 26.02 31.54ZM44.43 35.38L44.43 35.38Q43.56 35.38 42.30 35.31Q41.04 35.24 39.72 35.10Q38.41 34.97 37.40 34.86L37.40 34.86L37.40 10.25L42.09 10.25L42.09 17.99Q42.61 17.78 43.38 17.57Q44.15 17.36 45.01 17.20Q45.87 17.04 46.60 17.04L46.60 17.04Q49.05 17.04 50.50 18.04Q51.96 19.04 52.59 21Q53.22 22.96 53.22 25.93L53.22 25.93Q53.22 29.43 52.43 31.52Q51.64 33.60 49.72 34.49Q47.79 35.38 44.43 35.38ZM44.47 31.46L44.47 31.46Q46.18 31.46 47.02 30.85Q47.86 30.24 48.16 29.02Q48.46 27.79 48.46 26.00L48.46 26.00Q48.46 24.18 48.18 23.08Q47.90 21.98 47.25 21.47Q46.60 20.96 45.45 20.96L45.45 20.96Q44.89 20.96 44.26 21.09Q43.63 21.21 43.05 21.37Q42.47 21.52 42.09 21.66L42.09 21.66L42.09 31.32Q42.61 31.36 43.31 31.41Q44.01 31.46 44.47 31.46ZM72.61 35L56.72 35L56.72 11.09L72.61 11.09L72.61 15.12L61.55 15.12L61.55 20.93L70.51 20.93L70.51 24.88L61.55 24.88L61.55 30.98L72.61 30.98L72.61 35ZM82.90 35.38L82.90 35.38Q79.89 35.38 78.19 34.46Q76.49 33.53 75.81 31.46Q75.13 29.40 75.13 26.04L75.13 26.04Q75.13 22.71 75.89 20.74Q76.67 18.76 78.40 17.90Q80.13 17.04 82.93 17.04L82.93 17.04Q83.67 17.04 84.65 17.15Q85.63 17.25 86.62 17.41Q87.62 17.57 88.32 17.71L88.32 17.71L88.15 21.45Q87.48 21.38 86.64 21.33Q85.80 21.28 85.01 21.23Q84.23 21.17 83.73 21.17L83.73 21.17Q82.23 21.17 81.37 21.65Q80.52 22.12 80.18 23.19Q79.85 24.25 79.85 26.04L79.85 26.04Q79.85 27.96 80.17 29.12Q80.48 30.27 81.30 30.77Q82.13 31.25 83.73 31.25L83.73 31.25Q84.23 31.25 85.03 31.20Q85.84 31.15 86.69 31.08Q87.55 31.01 88.22 30.98L88.22 30.98L88.36 34.72Q87.66 34.86 86.67 35.02Q85.70 35.17 84.70 35.28Q83.70 35.38 82.90 35.38ZM96.02 35L91.36 35L91.36 10.25L96.02 10.25L96.02 18.06Q96.61 17.85 97.44 17.62Q98.26 17.39 99.15 17.22Q100.05 17.04 100.78 17.04L100.78 17.04Q102.64 17.04 103.84 17.52Q105.05 17.99 105.75 19.02Q106.45 20.05 106.75 21.73Q107.05 23.41 107.05 25.80L107.05 25.80L107.05 35L102.36 35L102.36 26.14Q102.36 24.32 102.14 23.22Q101.94 22.12 101.36 21.63Q100.78 21.14 99.59 21.14L99.59 21.14Q98.96 21.14 98.30 21.24Q97.63 21.35 97.02 21.52Q96.41 21.70 96.02 21.84L96.02 21.84L96.02 35ZM118.28 35.38L118.28 35.38Q115.31 35.38 113.50 34.41Q111.70 33.42 110.89 31.38Q110.09 29.33 110.09 26.07L110.09 26.07Q110.09 22.92 110.93 20.95Q111.77 18.97 113.59 18.01Q115.41 17.04 118.28 17.04L118.28 17.04Q121.19 17.04 122.99 18.01Q124.79 18.97 125.65 20.95Q126.50 22.92 126.50 26.07L126.50 26.07Q126.50 29.33 125.70 31.38Q124.90 33.42 123.09 34.41Q121.29 35.38 118.28 35.38ZM118.28 31.54L118.28 31.54Q119.75 31.54 120.48 30.99Q121.22 30.45 121.48 29.24Q121.75 28.04 121.75 26.07L121.75 26.07Q121.75 24.15 121.43 23.01Q121.12 21.88 120.38 21.38Q119.65 20.89 118.28 20.89L118.28 20.89Q116.95 20.89 116.20 21.38Q115.45 21.88 115.13 23.01Q114.81 24.15 114.81 26.07L114.81 26.07Q114.81 28.04 115.08 29.24Q115.34 30.45 116.08 30.99Q116.81 31.54 118.28 31.54ZM132.98 35L128.19 35L134.28 11.09L142.71 11.09L148.77 35L143.94 35L142.60 30.17L134.24 30.17L132.98 35ZM137.74 15.01L135.01 26.28L141.91 26.28L139.21 15.01L137.74 15.01ZM156.22 35L151.39 35L151.39 11.09L156.22 11.09L156.22 35Z"></path></g>
                
            </svg>